<svg width="20" height="20" viewBox="0 0 20 20" fill="none" xmlns="http://www.w3.org/2000/svg">
<g clip-path="url(#clip0_2477_187668)">
<path d="M9.61257 1.91294C9.64912 1.8391 9.70558 1.77694 9.77558 1.73348C9.84558 1.69002 9.92633 1.66699 10.0087 1.66699C10.0911 1.66699 10.1719 1.69002 10.2419 1.73348C10.3119 1.77694 10.3683 1.8391 10.4049 1.91294L12.3315 5.81534C12.4584 6.07219 12.6458 6.29441 12.8775 6.46292C13.1092 6.63143 13.3783 6.7412 13.6618 6.7828L17.9703 7.41333C18.052 7.42516 18.1287 7.45959 18.1917 7.51274C18.2548 7.56589 18.3018 7.63563 18.3273 7.71408C18.3528 7.79253 18.3559 7.87655 18.3361 7.95664C18.3164 8.03673 18.2746 8.1097 18.2155 8.16728L15.0996 11.2015C14.8941 11.4017 14.7404 11.6489 14.6516 11.9218C14.5628 12.1946 14.5417 12.4849 14.59 12.7678L15.3256 17.0546C15.34 17.1362 15.3312 17.2202 15.3002 17.2971C15.2692 17.3739 15.2171 17.4405 15.1501 17.4892C15.0831 17.5379 15.0037 17.5667 14.921 17.5725C14.8384 17.5782 14.7557 17.5606 14.6826 17.5217L10.8311 15.4967C10.5773 15.3634 10.2949 15.2938 10.0083 15.2938C9.72167 15.2938 9.43933 15.3634 9.18555 15.4967L5.33486 17.5217C5.26174 17.5604 5.17923 17.5778 5.09671 17.5719C5.01418 17.5661 4.93496 17.5372 4.86805 17.4885C4.80115 17.4399 4.74924 17.3734 4.71823 17.2967C4.68722 17.22 4.67837 17.1361 4.69266 17.0546L5.42744 12.7686C5.47597 12.4856 5.45495 12.1951 5.36617 11.9221C5.27739 11.6491 5.12353 11.4018 4.91785 11.2015L1.80194 8.16812C1.74238 8.1106 1.70018 8.03751 1.68014 7.95717C1.6601 7.87684 1.66302 7.79249 1.68858 7.71374C1.71413 7.63498 1.76129 7.56499 1.82469 7.51173C1.88808 7.45847 1.96516 7.42408 2.04714 7.41249L6.35487 6.7828C6.63865 6.74152 6.90815 6.63189 7.14017 6.46336C7.3722 6.29483 7.55979 6.07244 7.68681 5.81534L9.61257 1.91294Z" fill="#3B3A37" stroke="#3B3A37" stroke-width="1.5" stroke-linecap="round" stroke-linejoin="round"/>
</g>
<defs>
<clipPath id="clip0_2477_187668">
<rect width="20" height="20" fill="white"/>
</clipPath>
</defs>
</svg>
