<svg width="27" height="26" viewBox="0 0 27 26" fill="none" xmlns="http://www.w3.org/2000/svg">
<path d="M16.7349 22.2017C16.6948 24.2646 15.0105 25.9243 12.938 25.9243C10.8657 25.9241 9.18216 24.2644 9.14209 22.2017H16.7349Z" fill="#3B3A37" stroke="#3B3A37" stroke-width="0.150754"/>
<path d="M13.0493 0.0751953C14.0756 0.0751953 14.9124 0.876681 14.9731 1.8877C14.9697 1.88637 14.966 1.88515 14.9624 1.88379C14.8796 1.8524 14.7555 1.81166 14.5884 1.77051C14.2537 1.68811 13.7459 1.60645 13.0493 1.60645C12.5019 1.60648 11.995 1.68788 11.6255 1.76953C11.4405 1.8104 11.289 1.85109 11.1841 1.88184C11.1621 1.88828 11.1423 1.89493 11.1245 1.90039C11.179 0.88346 12.0188 0.0753427 13.0493 0.0751953Z" fill="#3B3A37" stroke="#3B3A37" stroke-width="0.150754"/>
<path d="M1.0673 20.647C1.10904 20.3842 1.22399 20.1395 1.39817 19.9428C3.16754 18.0606 5.04891 16.0588 5.04891 9.87765C5.04891 7.69137 5.89179 5.59464 7.39211 4.0487C8.89243 2.50277 10.9273 1.63428 13.0491 1.63428C15.1709 1.63428 17.2057 2.50277 18.7061 4.0487C20.2064 5.59464 21.0492 7.69137 21.0492 9.87765C21.0492 16.0588 22.9293 18.0606 24.7027 19.9442C24.8766 20.1411 24.9912 20.3859 25.0326 20.6487C25.074 20.9115 25.0404 21.1811 24.9358 21.4246C24.8313 21.6681 24.6604 21.875 24.4438 22.0203C24.2272 22.1655 23.9744 22.2428 23.716 22.2427H2.38219C2.12376 22.2425 1.87095 22.1649 1.65452 22.0194C1.43809 21.8739 1.26736 21.6667 1.16311 21.423C1.05886 21.1794 1.02557 20.9097 1.0673 20.647Z" stroke="#3B3A37" stroke-width="2.1" stroke-linecap="round" stroke-linejoin="round"/>
</svg>
