<svg width="20" height="20" viewBox="0 0 20 20" fill="none" xmlns="http://www.w3.org/2000/svg">
<path d="M9.61257 1.91465C9.64912 1.84081 9.70558 1.77865 9.77558 1.73519C9.84558 1.69173 9.92634 1.6687 10.0087 1.6687C10.0911 1.6687 10.1719 1.69173 10.2419 1.73519C10.3119 1.77865 10.3683 1.84081 10.4049 1.91465L12.3315 5.81705C12.4584 6.0739 12.6458 6.29612 12.8775 6.46463C13.1092 6.63314 13.3783 6.74291 13.6618 6.78451L17.9703 7.41504C18.052 7.42686 18.1287 7.4613 18.1917 7.51445C18.2548 7.5676 18.3018 7.63734 18.3273 7.71579C18.3528 7.79424 18.3559 7.87826 18.3361 7.95835C18.3164 8.03844 18.2746 8.11141 18.2155 8.16899L15.0996 11.2032C14.8941 11.4034 14.7404 11.6506 14.6516 11.9235C14.5628 12.1963 14.5417 12.4866 14.59 12.7695L15.3256 17.0563C15.34 17.1379 15.3312 17.222 15.3002 17.2988C15.2692 17.3756 15.2171 17.4422 15.1501 17.4909C15.0831 17.5396 15.0037 17.5684 14.921 17.5742C14.8384 17.5799 14.7557 17.5623 14.6826 17.5234L10.8311 15.4984C10.5773 15.3651 10.2949 15.2955 10.0083 15.2955C9.72168 15.2955 9.43933 15.3651 9.18555 15.4984L5.33486 17.5234C5.26174 17.5621 5.17923 17.5795 5.09671 17.5737C5.01418 17.5678 4.93496 17.5389 4.86805 17.4902C4.80115 17.4416 4.74924 17.3751 4.71823 17.2984C4.68722 17.2217 4.67837 17.1378 4.69266 17.0563L5.42744 12.7703C5.47597 12.4873 5.45495 12.1968 5.36617 11.9238C5.27739 11.6508 5.12353 11.4035 4.91785 11.2032L1.80194 8.16983C1.74238 8.11231 1.70018 8.03922 1.68014 7.95888C1.6601 7.87855 1.66302 7.7942 1.68858 7.71544C1.71413 7.63669 1.76129 7.5667 1.82469 7.51344C1.88808 7.46018 1.96516 7.42579 2.04714 7.4142L6.35487 6.78451C6.63865 6.74323 6.90815 6.6336 7.14018 6.46507C7.3722 6.29654 7.55979 6.07415 7.68681 5.81705L9.61257 1.91465Z" stroke="#3B3A37" stroke-width="1.5" stroke-linecap="round" stroke-linejoin="round"/>
</svg>
