<svg width="14" height="13" viewBox="0 0 14 13" fill="none" xmlns="http://www.w3.org/2000/svg">
<path d="M9.59999 11.1666V12.5H0.5V11.1666C0.5 10.4594 0.773928 9.78113 1.26152 9.28104C1.74912 8.78095 2.41044 8.5 3.1 8.5H6.99999C7.68956 8.5 8.35088 8.78095 8.83847 9.28104C9.32606 9.78113 9.59999 10.4594 9.59999 11.1666Z" stroke="#6C6964" stroke-linecap="round" stroke-linejoin="round"/>
<path d="M9.60156 0.585938C10.1591 0.734183 10.6529 1.06811 11.0054 1.5353C11.3578 2.0025 11.5491 2.57651 11.5491 3.16725C11.5491 3.75798 11.3578 4.332 11.0054 4.79919C10.6529 5.26639 10.1591 5.60031 9.60156 5.74856" stroke="#6C6964" stroke-linecap="round" stroke-linejoin="round"/>
<path d="M11.55 8.58594C12.1078 8.73365 12.6019 9.06717 12.9549 9.53414C13.3078 10.0011 13.4995 10.5751 13.5 11.1659V12.4992H11.0625" stroke="#6C6964" stroke-linecap="round" stroke-linejoin="round"/>
<path d="M5.04922 5.83329C6.48516 5.83329 7.64921 4.63939 7.64921 3.16664C7.64921 1.6939 6.48516 0.5 5.04922 0.5C3.61328 0.5 2.44922 1.6939 2.44922 3.16664C2.44922 4.63939 3.61328 5.83329 5.04922 5.83329Z" stroke="#6C6964" stroke-linecap="round" stroke-linejoin="round"/>
</svg>
