<svg width="20" height="20" viewBox="0 0 20 20" fill="none" xmlns="http://www.w3.org/2000/svg">
<path d="M9.77558 1.73519C9.70558 1.77865 9.64912 1.84081 9.61257 1.91465L7.68681 5.81705C7.55979 6.07415 7.3722 6.29654 7.14017 6.46507C6.90815 6.6336 6.63865 6.74323 6.35487 6.78451L2.04714 7.4142C1.96516 7.42579 1.88808 7.46018 1.82469 7.51344C1.76129 7.5667 1.71413 7.63669 1.68858 7.71544C1.66302 7.7942 1.6601 7.87855 1.68014 7.95888C1.70018 8.03922 1.74238 8.11231 1.80194 8.16983L4.91785 11.2032C5.12353 11.4035 5.27739 11.6508 5.36617 11.9238C5.45495 12.1968 5.47597 12.4873 5.42744 12.7703L4.69266 17.0564C4.67837 17.1378 4.68722 17.2217 4.71823 17.2984C4.74924 17.3751 4.80115 17.4416 4.86805 17.4902C4.93496 17.5389 5.01418 17.5678 5.09671 17.5737C5.17923 17.5795 5.26174 17.5621 5.33486 17.5234L9.18555 15.4984C9.43933 15.3651 9.72167 15.2955 10.0083 15.2955C10.2949 15.2955 10.5773 15.3651 10.8311 15.4984L14.6826 17.5234C14.7557 17.5623 14.8384 17.5799 14.921 17.5742C15.0037 17.5684 15.0831 17.5396 15.1501 17.4909C15.2171 17.4422 15.2692 17.3756 15.3002 17.2988C15.3312 17.222 15.34 17.1379 15.3256 17.0564L14.59 12.7695C14.5417 12.4866 14.5628 12.1963 14.6516 11.9235C14.7404 11.6506 14.8941 11.4034 15.0996 11.2032L18.2155 8.16899C18.2746 8.11141 18.3164 8.03844 18.3361 7.95835C18.3559 7.87826 18.3528 7.79424 18.3273 7.71579C18.3018 7.63734 18.2548 7.5676 18.1917 7.51445C18.1287 7.4613 18.052 7.42686 17.9703 7.41504L13.6618 6.78451C13.3783 6.74291 13.1092 6.63314 12.8775 6.46463C12.6458 6.29612 12.4584 6.0739 12.3315 5.81705L10.4049 1.91465C10.3683 1.84081 10.3119 1.77865 10.2419 1.73519C10.1719 1.69173 10.0911 1.6687 10.0087 1.6687C9.92633 1.6687 9.84558 1.69173 9.77558 1.73519Z" stroke="#3B3A37" stroke-width="1.5" stroke-linecap="round" stroke-linejoin="round"/>
<path d="M9.77558 1.73519C9.70558 1.77865 9.64912 1.84081 9.61257 1.91465L7.68681 5.81705C7.55979 6.07415 7.3722 6.29654 7.14017 6.46507C6.90815 6.6336 6.63865 6.74323 6.35487 6.78451L2.04714 7.4142C1.96516 7.42579 1.88808 7.46018 1.82469 7.51344C1.76129 7.5667 1.71413 7.63669 1.68858 7.71544C1.66302 7.7942 1.6601 7.87855 1.68014 7.95888C1.70018 8.03922 1.74238 8.11231 1.80194 8.16983L4.91785 11.2032C5.12353 11.4035 5.27739 11.6508 5.36617 11.9238C5.45495 12.1968 5.47597 12.4873 5.42744 12.7703L4.69266 17.0564C4.67837 17.1378 4.68722 17.2217 4.71823 17.2984C4.74924 17.3751 4.80115 17.4416 4.86805 17.4902C4.93496 17.5389 5.01418 17.5678 5.09671 17.5737C5.17923 17.5795 5.26174 17.5621 5.33486 17.5234L9.18555 15.4984C9.43933 15.3651 9.72167 15.2955 10.0083 15.2955L10.0087 1.6687C9.92633 1.6687 9.84558 1.69173 9.77558 1.73519Z" fill="#3B3A37"/>
</svg>
