<svg width="22" height="22" viewBox="0 0 22 22" fill="none" xmlns="http://www.w3.org/2000/svg">
<path d="M13.5999 3.60194L17.5999 7.60194M19.7739 5.41394C20.3026 4.88537 20.5997 4.16841 20.5998 3.4208C20.5999 2.67318 20.303 1.95615 19.7744 1.42744C19.2458 0.898735 18.5289 0.601656 17.7813 0.601563C17.0336 0.601469 16.3166 0.898367 15.7879 1.42694L2.44191 14.7759C2.20973 15.0074 2.03802 15.2925 1.94191 15.6059L0.62091 19.9579C0.595065 20.0444 0.593113 20.1363 0.615261 20.2238C0.637409 20.3113 0.68283 20.3912 0.746706 20.4549C0.810582 20.5187 0.890531 20.564 0.978068 20.586C1.06561 20.608 1.15747 20.6059 1.24391 20.5799L5.59691 19.2599C5.91008 19.1647 6.19508 18.994 6.42691 18.7629L19.7739 5.41394Z" stroke="#3B3A37" stroke-width="1.2" stroke-linecap="round" stroke-linejoin="round"/>
</svg>
