<svg width="15" height="15" viewBox="0 0 15 15" fill="none" xmlns="http://www.w3.org/2000/svg">
<path d="M6.88517 1.75829C6.91195 1.61492 6.98803 1.48543 7.10023 1.39224C7.21243 1.29906 7.35369 1.24805 7.49954 1.24805C7.6454 1.24805 7.78666 1.29906 7.89886 1.39224C8.01106 1.48543 8.08714 1.61492 8.11392 1.75829L8.77079 5.23204C8.81745 5.47901 8.93747 5.70618 9.11519 5.8839C9.29291 6.06162 9.52008 6.18164 9.76704 6.22829L13.2408 6.88517C13.3842 6.91195 13.5137 6.98803 13.6068 7.10023C13.7 7.21243 13.751 7.35369 13.751 7.49954C13.751 7.6454 13.7 7.78666 13.6068 7.89886C13.5137 8.01106 13.3842 8.08714 13.2408 8.11392L9.76704 8.77079C9.52008 8.81745 9.29291 8.93747 9.11519 9.11519C8.93747 9.29291 8.81745 9.52008 8.77079 9.76704L8.11392 13.2408C8.08714 13.3842 8.01106 13.5137 7.89886 13.6068C7.78666 13.7 7.6454 13.751 7.49954 13.751C7.35369 13.751 7.21243 13.7 7.10023 13.6068C6.98803 13.5137 6.91195 13.3842 6.88517 13.2408L6.22829 9.76704C6.18164 9.52008 6.06162 9.29291 5.8839 9.11519C5.70618 8.93747 5.47901 8.81745 5.23204 8.77079L1.75829 8.11392C1.61492 8.08714 1.48543 8.01106 1.39224 7.89886C1.29906 7.78666 1.24805 7.6454 1.24805 7.49954C1.24805 7.35369 1.29906 7.21243 1.39224 7.10023C1.48543 6.98803 1.61492 6.91195 1.75829 6.88517L5.23204 6.22829C5.47901 6.18164 5.70618 6.06162 5.8839 5.8839C6.06162 5.70618 6.18164 5.47901 6.22829 5.23204L6.88517 1.75829Z" stroke="#1C3D27" stroke-width="1.12184" stroke-linecap="round" stroke-linejoin="round"/>
<path d="M12.5 1.25V3.75" stroke="#1C3D27" stroke-width="1.12184" stroke-linecap="round" stroke-linejoin="round"/>
<path d="M13.75 2.5H11.25" stroke="#1C3D27" stroke-width="1.12184" stroke-linecap="round" stroke-linejoin="round"/>
<path d="M2.5 13.75C3.19036 13.75 3.75 13.1904 3.75 12.5C3.75 11.8096 3.19036 11.25 2.5 11.25C1.80964 11.25 1.25 11.8096 1.25 12.5C1.25 13.1904 1.80964 13.75 2.5 13.75Z" stroke="#1C3D27" stroke-width="1.12184" stroke-linecap="round" stroke-linejoin="round"/>
</svg>
