<svg width="13" height="13" viewBox="0 0 13 13" fill="none" xmlns="http://www.w3.org/2000/svg">
<path d="M5.9963 0.738269C6.02126 0.687842 6.05982 0.645394 6.10762 0.615716C6.15542 0.586039 6.21057 0.570313 6.26684 0.570312C6.3231 0.570312 6.37825 0.586039 6.42605 0.615716C6.47386 0.645394 6.51241 0.687842 6.53737 0.738269L7.85303 3.40319C7.9397 3.57859 8.06765 3.73035 8.22587 3.84542C8.3841 3.9605 8.56789 4.03546 8.76146 4.06387L11.7038 4.49445C11.7595 4.50253 11.8119 4.52604 11.855 4.56234C11.898 4.59864 11.9301 4.64626 11.9475 4.69983C11.965 4.7534 11.967 4.81078 11.9536 4.86548C11.9401 4.92017 11.9115 4.97 11.8712 5.00932L9.74337 7.08135C9.60304 7.21809 9.49805 7.3869 9.43743 7.57322C9.3768 7.75955 9.36237 7.95782 9.39537 8.15096L9.89772 11.0784C9.90756 11.1342 9.90154 11.1915 9.88034 11.244C9.85915 11.2965 9.82363 11.3419 9.77785 11.3752C9.73207 11.4084 9.67786 11.4281 9.62141 11.4321C9.56496 11.436 9.50854 11.424 9.45859 11.3974L6.82841 10.0145C6.65511 9.92353 6.46229 9.87598 6.26655 9.87598C6.07081 9.87598 5.87799 9.92353 5.70469 10.0145L3.07508 11.3974C3.02515 11.4238 2.9688 11.4357 2.91244 11.4317C2.85609 11.4277 2.80199 11.408 2.7563 11.3747C2.71061 11.3415 2.67516 11.2961 2.65399 11.2437C2.63281 11.1914 2.62676 11.1341 2.63652 11.0784L3.1383 8.15153C3.17144 7.9583 3.15708 7.7599 3.09646 7.57346C3.03583 7.38702 2.93076 7.21812 2.7903 7.08135L0.662465 5.00989C0.621796 4.97061 0.592977 4.9207 0.57929 4.86584C0.565603 4.81098 0.5676 4.75338 0.585052 4.6996C0.602504 4.64582 0.63471 4.59802 0.678001 4.56165C0.721292 4.52528 0.773928 4.5018 0.829913 4.49388L3.77164 4.06387C3.96543 4.03568 4.14947 3.96081 4.30792 3.84573C4.46636 3.73064 4.59447 3.57877 4.68121 3.40319L5.9963 0.738269Z" fill="#41684F" stroke="#41684F" stroke-width="1.1391" stroke-linecap="round" stroke-linejoin="round"/>
</svg>
